<svg width="48px" height="49px" viewBox="0 0 48 49" version="1.1">
    <g id="Page-1" stroke="none" stroke-width="1" fill="none" fill-rule="evenodd">
        <g id="LС-Copy-8" transform="translate(-340.000000, -741.000000)">
            <g id="68678" transform="translate(248.000000, 72.000000)">
                <g id="Group-3" transform="translate(92.000000, 669.218905)">
                    <g id="Group-39" transform="translate(18.000000, 17.218905)" fill="#1E9DF2">
                        <g id="Group-21-Copy-3">
                            <path d="M4.30934198,5.16739032 C4.30934198,6.23801242 3.50202222,6.70777517 2.73834136,6.70777517 C1.9746605,6.70777517 1.16734074,6.23801242 1.16734074,5.16739032 L1.16734074,2.69840467 C1.16734074,1.62778257 1.9746605,1.15801982 2.73834136,1.15801982 C3.50202222,1.15801982 4.30934198,1.62778257 4.30934198,2.69840467 L4.30934198,5.16739032 Z M0,5.16739032 C0,6.81702233 1.10188238,7.86579499 2.73834136,7.86579499 C4.37480034,7.86579499 5.47668272,6.81702233 5.47668272,5.16739032 L5.47668272,2.69840467 C5.47668272,1.04877267 4.37480034,0 2.73834136,0 C1.10188238,0 0,1.04877267 0,2.69840467 L0,5.16739032 Z M12.1097964,0.109247153 L10.9424557,0.109247153 L10.9424557,5.59345422 L7.80045447,0.109247153 L6.63311373,0.109247153 L6.63311373,7.75654784 L7.80045447,7.75654784 L7.80045447,2.27234078 L10.9424557,7.75654784 L12.1097964,7.75654784 L12.1097964,0.109247153 Z" id="ON"></path>

                            <path d="M0.30640346,12.8288839 L0.30640346,12.327432 L0.653965594,12.327432 C0.823173474,12.327432 0.900917636,12.4533674 0.900917636,12.5770131 C0.900917636,12.7006588 0.823173474,12.8288839 0.653965594,12.8288839 L0.30640346,12.8288839 Z M0.30640346,13.1334186 L0.653965594,13.1334186 C1.03354003,13.1334186 1.2073211,12.8678094 1.2073211,12.5770131 C1.2073211,12.2839271 1.03354003,12.0228973 0.653965594,12.0228973 L0,12.0228973 L0,13.6257115 L0.30640346,13.6257115 L0.30640346,13.1334186 Z M3.17150447,12.0228973 L2.86510101,12.0228973 L2.86510101,13.6257115 L3.83918962,13.6257115 L3.83918962,13.3211768 L3.17150447,13.3211768 L3.17150447,12.0228973 Z M6.25154522,13.0120627 L5.89483671,13.0120627 L6.07319097,12.4922929 L6.25154522,13.0120627 Z M6.3567285,13.3028589 L6.47105815,13.6257115 L6.79118116,13.6257115 L6.21953292,12.0228973 L5.92684902,12.0228973 L5.35520077,13.6257115 L5.67532379,13.6257115 L5.78965344,13.3028589 L6.3567285,13.3028589 Z M9.14179875,13.0899136 C9.1257926,13.2547745 9.00231658,13.3440742 8.84682826,13.3440742 C8.67990697,13.3440742 8.54957117,13.2410361 8.54957117,13.0555676 L8.54957117,12.5930412 C8.54957117,12.4075727 8.67990697,12.3045347 8.84682826,12.3045347 C9.00231658,12.3045347 9.1257926,12.3961241 9.14179875,12.5586952 L9.4504888,12.5586952 C9.43676925,12.2221042 9.21954291,12 8.84682826,12 C8.46268064,12 8.24316771,12.2381324 8.24316771,12.5930412 L8.24316771,13.0555676 C8.24316771,13.4104765 8.46268064,13.6486088 8.84682826,13.6486088 C9.21954291,13.6486088 9.43676925,13.4265046 9.4504888,13.0899136 L9.14179875,13.0899136 Z M11.4421113,12.327432 L12.1097964,12.327432 L12.1097964,12.0228973 L11.1357078,12.0228973 L11.1357078,13.6257115 L12.1097964,13.6257115 L12.1097964,13.3211768 L11.4421113,13.3211768 L11.4421113,12.9685577 L11.9497349,12.9685577 L11.9497349,12.664023 L11.4421113,12.664023 L11.4421113,12.327432 Z" id="place-copy-3"></path>
                        </g>
                        <rect id="Rectangle-30" transform="translate(3.017096, 3.555903) rotate(-30.000000) translate(-3.017096, -3.555903) " x="2.51709642" y="0.387735103" width="0.981875388" height="6.33633485"></rect>
                    </g>
                </g>
            </g>
        </g>
    </g>
</svg>