<svg width="150px" height="150px" viewBox="0 0 37 37" version="1.1" xmlns="http://www.w3.org/2000/svg"
     xmlns:xlink="http://www.w3.org/1999/xlink">
    <title>Made in M</title>
    <g id="Page-1" stroke="none" stroke-width="1" fill="none" fill-rule="evenodd">
        <g id="3-copy-8-[Converted]" fill="#000000">
            <path d="M0.014,0.986 L35.995,0.986 L35.995,36.995 L0.014,36.995 L0.014,0.986 L0.014,0.986 Z M27.659,28.915 L7.286,28.915 L7.286,25.938 L27.659,25.938 L27.659,28.915 L27.659,28.915 Z M27.636,23.933 L20.532,23.933 L20.493,22.142 L22.284,21.588 L21.918,14.005 L18.113,23.028 L16.073,23.028 L12.174,14.147 L11.843,21.606 L13.936,22.041 L13.895,23.932 L7.331,23.932 L7.291,22.082 L9.351,21.56 L10.154,11.283 L8.2,10.713 L8.322,9.001 C8.607,9.003 13.571,9.004 13.853,9.001 C13.954,9.443 17.587,18.284 17.587,18.284 L21.422,9.001 C21.658,9.009 26.512,9.004 26.774,9.001 L26.816,10.771 L24.837,11.284 L25.603,21.58 L27.679,22.042 L27.636,23.933 L27.636,23.933 Z"
                  id="Shape"></path>
        </g>
    </g>
</svg>